HIERARCHY
ROOT SpineBase
{
  OFFSET 0.000000 0.000000 0.000000
  CHANNELS 6 Xposition Yposition Zposition Zrotation Xrotation Yrotation
  JOINT SpineMid
  {
    OFFSET 0.000000 28.800945 0.000000
    CHANNELS 3 Zrotation Xrotation Yrotation
    JOINT SpineShoulder
    {
      OFFSET 0.246767 21.224999 -0.837328
      CHANNELS 3 Zrotation Xrotation Yrotation
      JOINT Neck
      {
        OFFSET 0.088213 6.942406 -0.544881
        CHANNELS 3 Zrotation Xrotation Yrotation
        JOINT Head
        {
          OFFSET -3.352711 11.271211 0.112966
          CHANNELS 3 Zrotation Xrotation Yrotation
          End Site
          {
            OFFSET 0 0 0
          }
        }
      }
      JOINT ShoulderLeft
      {
        OFFSET -12.724741 -2.307223 6.849189
        CHANNELS 3 Zrotation Xrotation Yrotation
        JOINT ElbowLeft
        {
          OFFSET 0.143465 -17.046693 7.410549
          CHANNELS 3 Zrotation Xrotation Yrotation
          JOINT WristLeft
          {
            OFFSET -11.454116 -12.008425 -18.446724
            CHANNELS 3 Zrotation Xrotation Yrotation
            JOINT HandLeft
            {
              OFFSET -2.638334 -1.506261 -3.847794
              CHANNELS 3 Zrotation Xrotation Yrotation
              JOINT HandTipLeft
              {
                OFFSET -3.347253 -0.961181 -1.733268
                CHANNELS 3 Zrotation Xrotation Yrotation
                End Site
                {
                  OFFSET 0 0 0
                }
              }
              JOINT ThumbLeft
              {
                OFFSET 3.571191 -0.768335 -5.367352
                CHANNELS 3 Zrotation Xrotation Yrotation
                End Site
                {
                  OFFSET 0 0 0
                }
              }
            }
          }
        }
      }
      JOINT ShoulderRight
      {
        OFFSET 10.365785 -2.169951 -6.193019
        CHANNELS 3 Zrotation Xrotation Yrotation
        JOINT ElbowRight
        {
          OFFSET 8.794407 -18.921769 0.738211
          CHANNELS 3 Zrotation Xrotation Yrotation
          JOINT WristRight
          {
            OFFSET -17.708469 -7.384351 -17.363587
            CHANNELS 3 Zrotation Xrotation Yrotation
            JOINT HandRight
            {
              OFFSET -4.573374 0.024013 -1.445224
              CHANNELS 3 Zrotation Xrotation Yrotation
              JOINT HandTipRight
              {
                OFFSET -3.826885 0.586768 -0.923175
                CHANNELS 3 Zrotation Xrotation Yrotation
                End Site
                {
                  OFFSET 0 0 0
                }
              }
              JOINT ThumbRight
              {
                OFFSET 2.286594 -4.854681 -3.414742
                CHANNELS 3 Zrotation Xrotation Yrotation
                End Site
                {
                  OFFSET 0 0 0
                }
              }
            }
          }
        }
      }
    }
  }
  JOINT HipLeft
  {
    OFFSET -5.384720 0.026707 -1.809021
    CHANNELS 3 Zrotation Xrotation Yrotation
    JOINT KneeLeft
    {
      OFFSET -3.158060 -24.813978 -11.903853
      CHANNELS 3 Zrotation Xrotation Yrotation
      JOINT AnkleLeft
      {
        OFFSET -20.656238 -19.818408 -13.064104
        CHANNELS 3 Zrotation Xrotation Yrotation
        JOINT FootLeft
        {
          OFFSET 1.924082 1.709566 -4.432277
          CHANNELS 3 Zrotation Xrotation Yrotation
          End Site
          {
            OFFSET 0 0 0
          }
        }
      }
    }
  }
  JOINT HipRight
  {
    OFFSET 4.825875 0.616070 -5.000399
    CHANNELS 3 Zrotation Xrotation Yrotation
    JOINT KneeRight
    {
      OFFSET -2.840438 -33.763357 -13.902776
      CHANNELS 3 Zrotation Xrotation Yrotation
      JOINT AnkleRight
      {
        OFFSET 14.781235 -20.821570 30.972757
        CHANNELS 3 Zrotation Xrotation Yrotation
        JOINT FootRight
        {
          OFFSET -4.504876 -4.827682 -10.759830
          CHANNELS 3 Zrotation Xrotation Yrotation
          End Site
          {
            OFFSET 0 0 0
          }
        }
      }
    }
  }
}
MOTION
Frames: 5
Frame Time: 0.033333
29.181690 79.687731 381.234620 -3.085585 2.426342 8.934734 0.082071 2.005502 -9.004294 0.053255 0.565526 -0.119506 34.906540 -7.695305 2.647093 0.000000 0.000000 0.000000 -10.636929 -13.847644 -7.680319 59.959510 -36.659334 78.690031 14.798397 -8.841546 2.793773 107.534507 39.654081 143.866172 0.000000 0.000000 0.000000 0.000000 0.000000 0.000000 133.490643 68.277339 -51.045871 162.534275 -73.051329 -107.873297 9.139609 48.995117 -21.471422 67.813410 -42.891903 8.868828 0.000000 0.000000 0.000000 0.000000 0.000000 0.000000 14.163215 -42.916475 -7.107585 42.258602 -6.909322 0.352467 -72.841210 -17.202081 18.279822 0.000000 0.000000 0.000000 13.809813 -29.317311 -9.808611 -48.437189 50.634259 25.834819 32.043022 -40.378635 2.215982 0.000000 0.000000 0.000000
29.026539 79.993538 381.161692 -3.616248 3.236480 8.479342 0.126531 2.221117 -8.529488 0.053232 0.619008 -0.136349 38.566793 -12.119654 3.690589 0.000000 0.000000 0.000000 -16.036122 -6.331422 -10.229776 74.247204 -37.789709 98.196836 11.930095 -13.968255 -7.442053 121.062020 30.724126 130.119569 0.000000 0.000000 0.000000 0.000000 0.000000 0.000000 135.040941 64.658029 -46.971002 179.599954 -72.124080 -93.706878 5.880195 50.858270 -3.868389 68.157952 -61.129751 3.928701 0.000000 0.000000 0.000000 0.000000 0.000000 0.000000 15.022234 -44.049576 -6.051070 42.378946 -6.799361 -0.574446 -69.114670 -11.435531 22.396061 0.000000 0.000000 0.000000 14.603891 -29.372163 -9.121748 -47.684496 50.227109 25.676684 31.549195 -37.567765 -3.804993 0.000000 0.000000 0.000000
28.881785 80.157826 381.115284 -3.641593 3.392766 8.318258 0.286955 2.240490 -8.356379 0.076583 0.544524 -0.130379 34.136754 -15.441636 3.075919 0.000000 0.000000 0.000000 -28.374127 4.884571 -14.636344 71.898002 -42.650026 146.464912 -50.718565 -31.238747 -99.346959 135.891043 9.738398 84.860422 0.000000 0.000000 0.000000 0.000000 0.000000 0.000000 135.392828 54.105587 -36.554739 -147.281903 -68.098316 -64.657828 -5.941943 51.429574 27.758761 -47.847215 -81.082182 -124.338300 0.000000 0.000000 0.000000 0.000000 0.000000 0.000000 14.906051 -44.309945 -5.721135 42.691321 -6.941304 -1.332576 -65.280476 -3.960538 26.881346 0.000000 0.000000 0.000000 14.855435 -29.114649 -8.968314 -47.433974 50.088168 26.235684 33.162765 -37.987299 -8.707564 0.000000 0.000000 0.000000
28.679033 80.356821 381.097087 -4.051350 4.024250 8.712681 0.420669 2.164007 -8.725978 0.103732 0.497418 -0.137819 35.289414 -18.807188 3.499844 0.000000 0.000000 0.000000 -35.616609 20.431602 -13.736116 -86.047887 27.997341 71.395930 -141.020567 67.032219 119.875395 138.020060 -13.713105 64.474919 0.000000 0.000000 0.000000 0.000000 0.000000 0.000000 135.827718 41.928676 -24.094100 -127.437629 -53.286928 -54.037501 -17.437369 43.349652 66.335237 -56.464996 -15.677926 -161.185769 0.000000 0.000000 0.000000 0.000000 0.000000 0.000000 15.015163 -44.855116 -6.021820 42.792163 -7.099698 -1.248718 -63.897175 -0.129907 28.472633 0.000000 0.000000 0.000000 15.456194 -30.480900 -9.128950 -48.788293 50.613966 27.699299 32.409683 -33.390741 -14.461468 0.000000 0.000000 0.000000
28.535651 80.472965 381.107771 -4.379003 4.565236 9.023290 0.497447 2.021174 -9.014198 0.100472 0.448950 -0.147858 34.099570 -21.966765 3.349280 0.000000 0.000000 0.000000 -42.600252 37.145217 -9.013602 -32.849580 50.161062 33.294236 -154.476917 55.908827 83.868954 150.295482 -39.896709 55.196388 0.000000 0.000000 0.000000 0.000000 0.000000 0.000000 137.462804 28.576872 -11.526774 -119.228608 -34.928104 -49.845481 -21.758435 30.694897 97.732387 -29.222450 21.991292 -167.063178 0.000000 0.000000 0.000000 0.000000 0.000000 0.000000 15.148217 -45.120062 -6.286202 42.890770 -7.336672 -0.739896 -62.198658 2.055058 30.460042 0.000000 0.000000 0.000000 15.677382 -31.232693 -9.255973 -49.029339 50.811178 28.278930 30.620470 -28.725703 -17.411275 0.000000 0.000000 0.000000
